<svg width="351px" height="582px" viewBox="0 0 351 582" version="1.1" xmlns="http://www.w3.org/2000/svg" xmlns:xlink="http://www.w3.org/1999/xlink" xmlns:sketch="http://www.bohemiancoding.com/sketch/ns">
    <!-- Generator: Sketch 3.4.1 (15681) - http://www.bohemiancoding.com/sketch -->
    <title>Slice 1</title>
    <desc>Created with Sketch.</desc>
    <defs></defs>
    <g id="Page-1" stroke="none" stroke-width="1" fill="none" fill-rule="evenodd" sketch:type="MSPage">
        <rect id="Rectangle-1" stroke="#979797" sketch:type="MSShapeGroup" x="1" y="1" width="347" height="580"></rect>
        <path d="M1.1942661,4.96825201 C1.1942661,13.2690333 0.757167378,21.5813308 1.1942661,29.8705958 C2.93165589,62.8189522 35.9030492,50.2064579 61.1200473,47.1518458 C68.6876326,46.235161 86.4540023,47.2391737 95.9872348,44.0346583 C97.5327383,43.5151504 99.3054421,42.4842432 99.7567661,40.9174708 C102.032742,33.0164153 92.7894781,3.20457575 83.5184848,1.58543951 C58.8064714,-2.73039972 29.803518,18.6384997 6.08098485,6.43309576 L1.1942661,4.96825201 Z" id="Path-4" stroke="#EDEDED" fill="#D61111" sketch:type="MSShapeGroup"></path>
        <path d="M125.194266,4.96825201 C125.194266,13.2690333 124.757167,21.5813308 125.194266,29.8705958 C126.931656,62.8189522 159.903049,50.2064579 185.120047,47.1518458 C192.687633,46.235161 210.454002,47.2391737 219.987235,44.0346583 C221.532738,43.5151504 223.305442,42.4842432 223.756766,40.9174708 C226.032742,33.0164153 216.789478,3.20457575 207.518485,1.58543951 C182.806471,-2.73039972 153.803518,18.6384997 130.080985,6.43309576 L125.194266,4.96825201 Z" id="Path-4" stroke="#979797" fill="#D61111" sketch:type="MSShapeGroup"></path>
        <path d="M347.117188,71.9335937 C321.45977,71.9335937 353.120242,70.9933364 309.707031,78.8632812 C300.110025,80.6030261 289.340382,77.6253617 280.613281,81.9804687 C277.472844,83.5476493 286.117595,86.7192684 287.5,89.9453125 L287.5,92.71875 C288.560466,95.1935019 290.859407,97.0727565 291.65625,99.6445312 C292.860786,103.532115 292.16438,107.849678 293.390625,111.730469 C294.382033,114.868052 294.964215,119.749842 298.199219,120.351562 C341.717529,128.446097 337.545574,133.962272 345.5,116.578125" id="Path-5" stroke="#979797" fill="#B51818" sketch:type="MSShapeGroup"></path>
        <path d="M14.2788066,82.9113949 C-6.49598642,87.256642 -1.40687184,114.055445 9.4311503,114.352801 C45.6743744,115.347184 81.9400887,115.278851 118.196775,115.391864 C119.148281,115.39483 120.806331,115.638423 120.966307,114.700457 C131.352123,53.8064664 41.7987348,63.1594032 6.8920878,83.1418637" id="Path-6" stroke="#979797" fill="#A41515" sketch:type="MSShapeGroup"></path>
        <path d="M260.480469,79.1679688 C239.970991,78.0671775 221.173113,70.7084289 200.40625,73.625 C198.307244,73.9197918 195.672924,75.6631231 195.59375,77.78125 L192.515625,77.78125 C192.0675,89.7698883 182.254127,113.565231 194.25,113.730469 L199.40625,115.808594 C222.832369,116.131278 246.265488,115.462013 269.683594,114.769531 C270.029797,114.759294 269.341865,113.786883 269.683594,113.730469 L276.917969,113.730469 C278.729609,113.431393 280.775337,113.027199 282.035156,111.691406 C282.809717,110.870136 282.553383,109.307618 282.035156,108.304688 C280.285297,104.918165 277.351695,102.258571 275.453125,98.953125 C264.584994,80.0315008 284.730113,77.2070312 249.554688,77.2070312" id="Path-7" stroke="#979797" fill="#A23535" sketch:type="MSShapeGroup"></path>
        <path d="M61.1942661,149.968252 C61.1942661,158.269033 60.7571674,166.581331 61.1942661,174.870596 C62.9316559,207.818952 95.9030492,195.206458 121.120047,192.151846 C128.687633,191.235161 146.454002,192.239174 155.987235,189.034658 C157.532738,188.51515 159.305442,187.484243 159.756766,185.917471 C162.032742,178.016415 152.789478,148.204576 143.518485,146.58544 C118.806471,142.2696 89.803518,163.6385 66.0809848,151.433096 L61.1942661,149.968252 Z" id="Path-4" stroke="#979797" fill="#D61111" sketch:type="MSShapeGroup"></path>
        <path d="M249.194266,149.968252 C249.194266,158.269033 248.757167,166.581331 249.194266,174.870596 C250.931656,207.818952 283.903049,195.206458 309.120047,192.151846 C316.687633,191.235161 334.454002,192.239174 343.987235,189.034658 C345.532738,188.51515 347.305442,187.484243 347.756766,185.917471 C350.032742,178.016415 340.789478,148.204576 331.518485,146.58544 C306.806471,142.2696 277.803518,163.6385 254.080985,151.433096 L249.194266,149.968252 Z" id="Path-4" stroke="#979797" fill="#D61111" sketch:type="MSShapeGroup"></path>
        <path d="M5.23046875,224.07927 C14.0452325,224.583704 19.4010394,227.699847 25.9335938,228.544114 C45.8127303,231.113292 61.7533549,222.427949 41.7109375,267.180833 C39.5716021,271.957773 10.3583176,262.787401 5,262.333176" id="Path-4" stroke="#979797" fill="#A71111" sketch:type="MSShapeGroup"></path>
        <path d="M208.169056,232.539321 C187.659578,231.43853 168.861701,224.079782 148.094837,226.996353 C145.995831,227.291145 143.361511,229.034476 143.282337,231.152603 L140.204212,231.152603 C139.756088,243.141241 129.942715,266.936584 141.938587,267.101821 L147.094837,269.179946 C170.520957,269.50263 193.954076,268.833365 217.372181,268.140884 C217.718384,268.130647 217.030452,267.158236 217.372181,267.101821 L224.606556,267.101821 C226.418197,266.802746 228.463925,266.398552 229.723744,265.062759 C230.498304,264.241488 230.241971,262.678971 229.723744,261.67604 C227.973885,258.289518 225.040282,255.629924 223.141712,252.324478 C212.273582,233.402853 232.4187,230.578384 197.243275,230.578384" id="Path-7" stroke="#979797" fill="#A23535" sketch:type="MSShapeGroup"></path>
        <path d="M350.185982,226.352534 C324.528565,226.352534 356.189037,225.412276 312.775826,233.282221 C303.17882,235.021966 292.409177,232.044302 283.682076,236.399409 C280.541639,237.966589 289.18639,241.138208 290.568795,244.364252 L290.568795,247.13769 C291.629261,249.612442 293.928202,251.491696 294.725045,254.063471 C295.929581,257.951055 295.233175,262.268618 296.45942,266.149409 C297.450827,269.286991 298.03301,274.168782 301.268014,274.770502 C344.786324,282.865037 340.614369,288.381212 348.568795,270.997065" id="Path-5" stroke="#979797" fill="#B51818" sketch:type="MSShapeGroup"></path>
        <path d="M241.194266,306.24511 C241.194266,314.545891 240.757167,322.858188 241.194266,331.147453 C242.931656,364.09581 275.903049,351.483316 301.120047,348.428703 C308.687633,347.512019 326.454002,348.516031 335.987235,345.311516 C337.532738,344.792008 339.305442,343.761101 339.756766,342.194328 C342.032742,334.293273 332.789478,304.481433 323.518485,302.862297 C298.806471,298.546458 269.803518,319.915357 246.080985,307.709953 L241.194266,306.24511 Z" id="Path-4" stroke="#979797" fill="#D61111" sketch:type="MSShapeGroup"></path>
        <path d="M7.23046875,398 C16.0452325,398.504434 21.4010394,401.620577 27.9335938,402.464844 C47.8127303,405.034022 63.7533549,396.348679 43.7109375,441.101562 C41.5716021,445.878503 12.3583176,436.708131 7,436.253906" id="Path-4" stroke="#979797" fill="#A71111" sketch:type="MSShapeGroup"></path>
        <path d="M175.278807,412.911395 C154.504014,417.256642 159.593128,444.055445 170.43115,444.352801 C206.674374,445.347184 242.940089,445.278851 279.196775,445.391864 C280.148281,445.39483 281.806331,445.638423 281.966307,444.700457 C292.352123,383.806466 202.798735,393.159403 167.892088,413.141864" id="Path-6" stroke="#979797" fill="#A41515" sketch:type="MSShapeGroup"></path>
        <path d="M3.1942661,489.968252 C3.1942661,498.269033 2.75716738,506.581331 3.1942661,514.870596 C4.93165589,547.818952 37.9030492,535.206458 63.1200473,532.151846 C70.6876326,531.235161 88.4540023,532.239174 97.9872348,529.034658 C99.5327383,528.51515 101.305442,527.484243 101.756766,525.917471 C104.032742,518.016415 94.7894781,488.204576 85.5184848,486.58544 C60.8064714,482.2696 31.803518,503.6385 8.08098485,491.433096 L3.1942661,489.968252 Z" id="Path-4" stroke="#979797" fill="#D61111" sketch:type="MSShapeGroup"></path>
        <path d="M251.194266,490.373357 C251.194266,498.674138 250.757167,506.986436 251.194266,515.275701 C252.931656,548.224057 285.903049,535.611563 311.120047,532.556951 C318.687633,531.640266 336.454002,532.644279 345.987235,529.439763 C347.532738,528.920255 349.305442,527.889348 349.756766,526.322576 C352.032742,518.42152 342.789478,488.609681 333.518485,486.990544 C308.806471,482.674705 279.803518,504.043605 256.080985,491.838201 L251.194266,490.373357 Z" id="Path-4" stroke="#979797" fill="#D61111" sketch:type="MSShapeGroup"></path>
    </g>
</svg>